# 3ds Max Wavefront OBJ Exporter v0.97b - (c)2007 guruware
# File Created: 12.09.2019 16:51:02

#
# object Box001
#

v  -15.0000 0.0000 12.0000
v  -15.0000 0.0000 -12.0000
v  10.7574 0.0000 -12.0000
v  15.0000 0.0000 -9.0000
v  15.0000 0.0000 9.0000
v  10.7574 0.0000 12.0000
v  -15.0000 60.0000 12.0000
v  15.0000 60.0000 12.0000
v  15.0000 60.0000 -12.0000
v  -15.0000 60.0000 -12.0000
v  -12.0000 3.0000 15.0000
v  12.0000 3.0000 15.0000
v  12.0000 27.0000 15.0000
v  -12.0000 27.0000 15.0000
v  75.0000 0.0000 12.0000
v  75.0000 0.0000 -12.0000
v  75.0000 30.0000 -12.0000
v  75.0000 30.0000 12.0000
v  -12.0000 3.0000 -15.0000
v  -12.0000 27.0000 -15.0000
v  12.0000 27.0000 -15.0000
v  12.0000 3.0000 -15.0000
v  -15.0000 25.7574 12.0000
v  -15.0000 30.0000 9.0000
v  -15.0000 30.0000 -9.0000
v  -15.0000 25.7574 -12.0000
v  12.0000 57.0000 15.0000
v  -12.0000 57.0000 15.0000
v  -12.0000 33.0000 15.0000
v  12.0000 33.0000 15.0000
v  15.0000 30.0000 -9.0000
v  15.0000 34.2426 -12.0000
v  15.0000 30.0000 9.0000
v  15.0000 34.2426 12.0000
v  -12.0000 57.0000 -15.0000
v  12.0000 57.0000 -15.0000
v  12.0000 33.0000 -15.0000
v  -12.0000 33.0000 -15.0000
v  -15.0000 34.2426 12.0000
v  -15.0000 34.2426 -12.0000
v  19.2426 0.0000 -12.0000
v  40.7574 0.0000 -12.0000
v  45.0000 0.0000 -9.0000
v  45.0000 0.0000 9.0000
v  40.7574 0.0000 12.0000
v  19.2426 0.0000 12.0000
v  42.0000 27.0000 -15.0000
v  42.0000 3.0000 -15.0000
v  18.0000 3.0000 -15.0000
v  18.0000 27.0000 -15.0000
v  19.2426 30.0000 12.0000
v  40.7574 30.0000 12.0000
v  45.0000 30.0000 9.0000
v  45.0000 30.0000 -9.0000
v  40.7574 30.0000 -12.0000
v  19.2426 30.0000 -12.0000
v  42.0000 3.0000 15.0000
v  42.0000 27.0000 15.0000
v  18.0000 27.0000 15.0000
v  18.0000 3.0000 15.0000
v  49.2426 0.0000 -12.0000
v  49.2426 0.0000 12.0000
v  72.0000 27.0000 -15.0000
v  72.0000 3.0000 -15.0000
v  48.0000 3.0000 -15.0000
v  48.0000 27.0000 -15.0000
v  49.2426 30.0000 12.0000
v  49.2426 30.0000 -12.0000
v  72.0000 3.0000 15.0000
v  72.0000 27.0000 15.0000
v  48.0000 27.0000 15.0000
v  48.0000 3.0000 15.0000
v  14.1213 0.0000 -12.8787
v  15.0000 0.0000 -12.0000
v  -15.0000 29.1213 -12.8787
v  -15.0000 30.0000 -12.0000
v  15.0000 30.0000 -12.0000
v  15.0000 30.8787 -12.8787
v  -15.0000 30.8787 -12.8787
v  15.8787 0.0000 -12.8787
v  15.8787 30.0000 -12.8787
v  44.1213 0.0000 -12.8787
v  45.0000 0.0000 -12.0000
v  44.1213 30.0000 -12.8787
v  45.0000 30.0000 -12.0000
v  45.8787 0.0000 -12.8787
v  45.8787 30.0000 -12.8787
v  15.0000 0.0000 12.0000
v  14.1213 0.0000 12.8787
v  15.0000 30.0000 12.0000
v  -15.0000 30.0000 12.0000
v  -15.0000 29.1213 12.8787
v  -15.0000 30.8787 12.8787
v  15.0000 30.8787 12.8787
v  45.0000 0.0000 12.0000
v  44.1213 0.0000 12.8787
v  15.8787 0.0000 12.8787
v  15.8787 30.0000 12.8787
v  44.1213 30.0000 12.8787
v  45.0000 30.0000 12.0000
v  45.8787 0.0000 12.8787
v  45.8787 30.0000 12.8787
# 102 vertices

vn 0.0000 -1.0000 -0.0000
vn 0.0000 1.0000 -0.0000
vn 0.0000 0.0000 1.0000
vn 1.0000 0.0000 -0.0000
vn 0.0000 0.0000 -1.0000
vn -1.0000 0.0000 -0.0000
vn 0.0000 0.7071 -0.7071
vn 0.7071 0.0000 -0.7071
vn 0.0000 -0.7071 -0.7071
vn -0.7071 0.0000 -0.7071
vn 0.7071 -0.0000 -0.7071
vn -0.7071 -0.0000 -0.7071
vn -0.0751 -0.6894 -0.7205
vn -0.1913 -0.6533 -0.7325
vn -0.0720 -0.6902 -0.7200
vn -0.6902 -0.0720 -0.7200
vn -0.6533 -0.1913 -0.7325
vn -0.6894 -0.0751 -0.7205
vn 0.6533 0.1913 -0.7325
vn 0.6894 0.0751 -0.7205
vn 0.6902 0.0720 -0.7200
vn -0.6533 0.1913 -0.7325
vn -0.6902 0.0720 -0.7200
vn -0.6894 0.0751 -0.7205
vn 0.1913 -0.6533 -0.7325
vn 0.0751 -0.6894 -0.7205
vn 0.0720 -0.6902 -0.7200
vn 0.1913 0.6533 -0.7325
vn 0.0720 0.6902 -0.7200
vn 0.0751 0.6894 -0.7205
vn -0.1913 0.6533 -0.7325
vn -0.0751 0.6894 -0.7205
vn -0.0720 0.6902 -0.7200
vn -0.0000 -0.7071 -0.7071
vn 0.7071 0.0000 0.7071
vn 0.0000 0.7071 0.7071
vn 0.0000 -0.7071 0.7071
vn 0.7071 -0.0000 0.7071
vn -0.7071 0.0000 0.7071
vn -0.7071 -0.0000 0.7071
vn -0.0720 -0.6902 0.7200
vn -0.1913 -0.6533 0.7325
vn -0.0751 -0.6894 0.7205
vn -0.6894 -0.0751 0.7205
vn -0.6533 -0.1913 0.7325
vn -0.6902 -0.0720 0.7200
vn -0.6533 0.1913 0.7325
vn -0.6894 0.0751 0.7205
vn -0.6902 0.0720 0.7200
vn 0.6533 0.1913 0.7325
vn 0.6902 0.0720 0.7200
vn 0.6894 0.0751 0.7205
vn 0.1913 -0.6533 0.7325
vn 0.0720 -0.6902 0.7200
vn 0.0751 -0.6894 0.7205
vn 0.1913 0.6533 0.7325
vn 0.0751 0.6894 0.7205
vn 0.0720 0.6902 0.7200
vn -0.1913 0.6533 0.7325
vn -0.0720 0.6902 0.7200
vn -0.0751 0.6894 0.7205
vn -0.0000 -0.7071 0.7071
# 62 vertex normals

vt 1.0000 0.1000 0.0000
vt 1.0000 0.9000 0.0000
vt 0.1414 0.9000 0.0000
vt 0.0000 0.8000 0.0000
vt 0.0000 0.2000 0.0000
vt 0.1414 0.1000 0.0000
vt 0.0000 0.1000 0.0000
vt 0.0000 0.9000 0.0000
vt 0.1000 0.1111 0.0000
vt 0.9000 0.1111 0.0000
vt 0.9000 1.0000 0.0000
vt 0.1000 0.9111 0.0000
vt 0.1000 0.0000 0.0000
vt 0.9000 0.0000 0.0000
vt 0.1000 1.0000 0.0000
vt 0.9000 0.1000 0.0000
vt 0.9000 0.9000 0.0000
vt 0.1000 0.9000 0.0000
vt 0.1000 0.1000 0.0000
vt 0.9000 0.8586 0.0000
vt 0.8000 1.0000 0.0000
vt 0.2000 1.0000 0.0000
vt 0.1000 0.8586 0.0000
vt 1.0000 0.8000 0.0000
vt 1.0000 0.2000 0.0000
vt 0.8000 0.0000 0.0000
vt 0.2000 0.0000 0.0000
vt 0.0293 1.0000 0.0000
vt 0.0000 1.0000 0.0000
vt 0.0000 1.2000 0.0000
vt 1.0000 0.9707 0.0000
vt 1.0000 1.0000 0.0000
vt 0.0000 0.0000 0.0000
vt 0.0293 0.0000 0.0000
vt -0.2000 1.0000 0.0000
vt 0.0000 0.9707 0.0000
vt 1.0000 1.2000 0.0000
vt 1.2000 0.0000 0.0000
vt 1.0000 0.0000 0.0000
vt 1.2000 1.0000 0.0000
vt 0.1430 -0.0029 0.0000
vt -0.0917 0.8187 0.0000
vt 1.0695 -0.0382 0.0000
vt 0.1756 -0.1613 0.0000
vt -0.0493 0.0489 0.0000
vt -0.0680 0.8379 0.0000
vt 0.0000 -0.2000 0.0000
vt 0.9707 0.0000 0.0000
vt 1.0000 -0.2000 0.0000
vt -0.2000 0.0000 0.0000
vt 0.1813 -0.0917 0.0000
vt 0.0102 0.8582 0.0000
vt 0.8765 -0.1090 0.0000
vt -0.0622 -0.0427 0.0000
vt 1.0712 0.8422 0.0000
vt 1.0525 0.0517 0.0000
# 56 texture coords

o Box001
g Box001
s 1
f 1/1/1 2/2/1 3/3/1 
f 1/1/1 3/3/1 4/4/1 
f 4/4/1 5/5/1 6/6/1 
f 1/1/1 4/4/1 6/6/1 
f 7/7/2 8/1/2 9/2/2 
f 9/2/2 10/8/2 7/7/2 
f 11/9/3 12/10/3 13/11/3 
f 13/11/3 14/12/3 11/9/3 
s 2
f 15/13/4 16/14/4 17/11/4 
f 17/11/4 18/15/4 15/13/4 
s 1
f 19/16/5 20/17/5 21/18/5 
f 21/18/5 22/19/5 19/16/5 
s 2
f 1/14/6 23/20/6 24/21/6 
f 1/14/6 24/21/6 25/22/6 
f 2/13/6 1/14/6 25/22/6 
f 2/13/6 25/22/6 26/23/6 
s 1
f 27/14/3 28/13/3 29/13/3 
f 29/13/3 30/14/3 27/14/3 
s 2
f 31/24/4 32/2/4 9/2/4 
f 31/24/4 9/2/4 8/1/4 
f 33/25/4 31/24/4 8/1/4 
f 33/25/4 8/1/4 34/1/4 
s 1
f 35/15/5 36/11/5 37/11/5 
f 37/11/5 38/15/5 35/15/5 
s 2
f 25/4/6 24/5/6 39/7/6 
f 25/4/6 39/7/6 7/7/6 
f 25/4/6 7/7/6 10/8/6 
f 25/4/6 10/8/6 40/8/6 
s 1
f 4/26/1 41/14/1 42/14/1 
f 4/26/1 42/14/1 43/26/1 
f 43/26/1 44/27/1 45/13/1 
f 4/26/1 43/26/1 45/13/1 
f 5/27/1 4/26/1 45/13/1 
f 5/27/1 45/13/1 46/13/1 
f 47/2/5 48/1/5 49/1/5 
f 49/1/5 50/2/5 47/2/5 
f 31/21/2 33/22/2 51/15/2 
f 51/15/2 52/15/2 53/22/2 
f 51/15/2 53/22/2 54/21/2 
f 31/21/2 51/15/2 54/21/2 
f 31/21/2 54/21/2 55/11/2 
f 31/21/2 55/11/2 56/11/2 
f 57/7/3 58/8/3 59/8/3 
f 59/8/3 60/7/3 57/7/3 
f 43/26/1 61/14/1 16/14/1 
f 43/26/1 16/14/1 15/13/1 
f 44/27/1 43/26/1 15/13/1 
f 44/27/1 15/13/1 62/13/1 
f 63/2/5 64/1/5 65/1/5 
f 65/1/5 66/2/5 63/2/5 
f 54/21/2 53/22/2 67/15/2 
f 54/21/2 67/15/2 18/15/2 
f 54/21/2 18/15/2 17/11/2 
f 54/21/2 17/11/2 68/11/2 
f 69/7/3 70/8/3 71/8/3 
f 71/8/3 72/7/3 69/7/3 
s 2
f 73/28/4 74/29/4 74/30/4 
s 4
f 75/31/7 76/32/7 77/29/7 
f 75/31/7 77/29/7 21/18/7 
f 20/17/7 75/31/7 21/18/7 
s 8
f 21/18/8 77/29/8 74/33/8 
f 74/33/8 73/34/8 22/19/8 
f 21/18/8 74/33/8 22/19/8 
s 1
f 76/35/4 76/29/4 75/36/4 
s 16
f 77/37/4 77/32/4 78/32/4 
s 32
f 78/32/9 77/32/9 76/29/9 
f 76/29/9 79/29/9 38/15/9 
f 78/32/9 76/29/9 38/15/9 
f 37/11/9 78/32/9 38/15/9 
s 1
f 79/29/4 76/29/4 76/30/4 
s 2
f 74/38/4 74/39/4 80/39/4 
s 64
f 80/39/10 74/39/10 77/32/10 
f 77/32/10 81/32/10 50/2/10 
f 80/39/10 77/32/10 50/2/10 
f 49/1/10 80/39/10 50/2/10 
s 16
f 81/32/4 77/32/4 77/40/4 
s 2
f 82/39/4 83/39/4 83/38/4 
s 4
f 84/32/8 85/32/8 83/39/11 
f 83/39/11 82/39/11 48/1/11 
f 84/32/8 83/39/11 48/1/11 
f 47/2/8 84/32/8 48/1/11 
s 2
f 85/40/4 85/32/4 84/32/4 
f 83/38/4 83/39/4 86/39/4 
s 8
f 86/39/12 83/39/10 85/32/10 
f 85/32/10 87/32/10 66/2/10 
f 86/39/12 85/32/10 66/2/10 
f 65/1/10 86/39/12 66/2/10 
s 2
f 87/32/4 85/32/4 85/40/4 
s 4
f 22/19/13 73/34/14 3/41/15 
s 8
f 26/23/16 75/36/17 20/42/18 
s 4
f 78/32/19 37/11/20 32/2/21 
f 79/29/22 40/8/23 38/15/24 
s 8
f 80/39/25 49/1/26 41/14/27 
f 81/32/28 56/11/29 50/2/30 
f 82/39/14 42/14/15 48/1/13 
f 84/32/31 47/2/32 55/11/33 
s 4
f 86/39/25 65/1/26 61/14/27 
f 87/32/28 68/11/29 66/2/30 
f 2/43/9 19/16/9 22/19/13 
f 22/19/13 3/44/15 2/43/9 
s 8
f 19/45/10 2/13/10 26/23/16 
f 26/23/16 20/46/18 19/45/10 
f 9/2/7 36/11/7 35/15/7 
f 35/15/7 10/8/7 9/2/7 
s 4
f 32/2/21 37/11/20 36/11/8 
f 36/11/8 9/2/8 32/2/21 
f 38/15/24 40/8/23 10/8/10 
f 10/8/10 35/15/10 38/15/24 
s 8
f 41/14/27 49/1/26 48/1/13 
f 48/1/13 42/14/15 41/14/27 
f 50/2/30 56/11/29 55/11/33 
f 55/11/33 47/2/32 50/2/30 
f 16/14/8 64/1/8 63/2/8 
f 63/2/8 17/11/8 16/14/8 
s 4
f 61/14/27 65/1/26 64/1/34 
f 64/1/34 16/14/9 61/14/27 
f 66/2/30 68/11/29 17/11/7 
f 17/11/7 63/2/7 66/2/30 
s 1
f 3/3/1 73/28/1 74/30/1 
f 74/30/1 4/4/1 3/3/1 
s 2
f 25/22/6 76/35/6 75/36/6 
f 75/36/6 26/23/6 25/22/6 
f 31/24/4 77/37/4 78/32/4 
f 78/32/4 32/2/4 31/24/4 
f 40/8/6 79/29/6 76/30/6 
f 76/30/6 25/4/6 40/8/6 
s 1
f 4/26/1 74/38/1 80/39/1 
f 80/39/1 41/14/1 4/26/1 
f 56/11/2 81/32/2 77/40/2 
f 77/40/2 31/21/2 56/11/2 
f 42/14/1 82/39/1 83/38/1 
f 83/38/1 43/26/1 42/14/1 
f 54/21/2 85/40/2 84/32/2 
f 84/32/2 55/11/2 54/21/2 
f 43/26/1 83/38/1 86/39/1 
f 86/39/1 61/14/1 43/26/1 
f 68/11/2 87/32/2 85/40/2 
f 85/40/2 54/21/2 68/11/2 
s 2
f 88/47/4 88/33/4 89/34/4 
s 4
f 88/39/35 90/32/35 13/11/35 
f 89/48/35 88/39/35 13/11/35 
f 12/10/35 89/48/35 13/11/35 
s 8
f 13/11/36 90/32/36 91/29/36 
f 91/29/36 92/36/36 14/12/36 
f 13/11/36 91/29/36 14/12/36 
s 1
f 92/31/4 91/32/4 91/40/4 
s 16
f 93/33/37 91/33/37 90/39/37 
f 90/39/37 94/39/37 30/14/37 
f 93/33/37 90/39/37 30/14/37 
f 29/13/37 93/33/37 30/14/37 
s 32
f 94/39/4 90/39/4 90/49/4 
s 1
f 91/47/4 91/33/4 93/33/4 
s 2
f 95/50/4 95/33/4 96/33/4 
f 97/33/4 88/33/4 88/50/4 
s 32
f 90/35/4 90/29/4 98/29/4 
s 2
f 99/29/4 100/29/4 100/35/4 
s 4
f 96/33/38 95/33/35 100/29/35 
f 100/29/35 99/29/35 58/8/35 
f 96/33/38 100/29/35 58/8/35 
f 57/7/35 96/33/38 58/8/35 
s 64
f 98/29/39 90/29/39 88/33/39 
f 88/33/39 97/33/39 60/7/39 
f 98/29/39 88/33/39 60/7/39 
f 59/8/39 98/29/39 60/7/39 
s 2
f 101/33/4 95/33/4 95/50/4 
f 100/35/4 100/29/4 102/29/4 
s 8
f 102/29/39 100/29/39 95/33/40 
f 95/33/40 101/33/40 72/7/40 
f 102/29/39 95/33/40 72/7/40 
f 71/8/39 102/29/39 72/7/40 
f 6/6/41 89/34/42 12/51/43 
s 4
f 14/12/44 92/36/45 23/52/46 
f 93/33/47 29/13/48 39/7/49 
f 94/39/50 34/1/51 30/14/52 
s 8
f 97/33/53 46/13/54 60/7/55 
f 96/33/42 57/7/43 45/13/41 
f 98/29/56 59/8/57 51/15/58 
f 99/29/59 52/15/60 58/8/61 
s 4
f 101/33/53 62/13/54 72/7/55 
f 102/29/56 71/8/57 67/15/58 
s 8
f 6/53/41 12/10/43 11/9/37 
f 11/9/37 1/54/37 6/53/41 
s 4
f 14/55/44 23/20/46 1/14/39 
f 1/14/39 11/56/39 14/55/44 
s 8
f 7/7/36 28/13/36 27/14/36 
f 27/14/36 8/1/36 7/7/36 
s 4
f 39/7/49 29/13/48 28/13/39 
f 28/13/39 7/7/39 39/7/49 
f 30/14/52 34/1/51 8/1/35 
f 8/1/35 27/14/35 30/14/52 
s 8
f 60/7/55 46/13/54 45/13/41 
f 45/13/41 57/7/43 60/7/55 
f 51/15/58 59/8/57 58/8/61 
f 58/8/61 52/15/60 51/15/58 
f 18/15/35 70/8/35 69/7/35 
f 69/7/35 15/13/35 18/15/35 
s 4
f 72/7/55 62/13/54 15/13/62 
f 15/13/62 69/7/62 72/7/55 
f 67/15/58 71/8/57 70/8/36 
f 70/8/36 18/15/36 67/15/58 
s 1
f 5/5/1 88/47/1 89/34/1 
f 89/34/1 6/6/1 5/5/1 
s 2
f 23/20/6 92/31/6 91/40/6 
f 91/40/6 24/21/6 23/20/6 
f 34/1/4 94/39/4 90/49/4 
f 90/49/4 33/25/4 34/1/4 
f 24/5/6 91/47/6 93/33/6 
f 93/33/6 39/7/6 24/5/6 
s 1
f 44/27/1 95/50/1 96/33/1 
f 96/33/1 45/13/1 44/27/1 
f 46/13/1 97/33/1 88/50/1 
f 88/50/1 5/27/1 46/13/1 
f 33/22/2 90/35/2 98/29/2 
f 98/29/2 51/15/2 33/22/2 
f 52/15/2 99/29/2 100/35/2 
f 100/35/2 53/22/2 52/15/2 
f 62/13/1 101/33/1 95/50/1 
f 95/50/1 44/27/1 62/13/1 
f 53/22/2 100/35/2 102/29/2 
f 102/29/2 67/15/2 53/22/2 
# 220 faces

