# 3ds Max Wavefront OBJ Exporter v0.97b - (c)2007 guruware
# File Created: 14.09.2019 10:57:15

#
# object Box001
#

v  -15.0000 0.0000 12.0000
v  -15.0000 0.0000 -12.0000
v  15.0000 0.0000 -12.0000
v  15.0000 0.0000 12.0000
v  -15.0000 30.0000 12.0000
v  15.0000 30.0000 12.0000
v  15.0000 30.0000 -12.0000
v  -15.0000 30.0000 -12.0000
v  -12.0000 3.0000 15.0000
v  12.0000 3.0000 15.0000
v  12.0000 27.0000 15.0000
v  -12.0000 27.0000 15.0000
v  12.0000 3.0000 -15.0000
v  -12.0000 3.0000 -15.0000
v  -12.0000 27.0000 -15.0000
v  12.0000 27.0000 -15.0000
# 16 vertices

vn 0.0000 -1.0000 -0.0000
vn 0.0000 1.0000 -0.0000
vn 0.0000 0.0000 1.0000
vn 1.0000 0.0000 -0.0000
vn 0.0000 0.0000 -1.0000
vn -1.0000 0.0000 -0.0000
vn 0.0000 -0.7071 -0.7071
vn 0.0000 -0.7071 0.7071
vn 0.0000 0.7071 0.7071
vn 0.0000 0.7071 -0.7071
vn 0.7071 0.0000 0.7071
vn -0.7071 0.0000 0.7071
vn 0.7071 0.0000 -0.7071
vn -0.7071 0.0000 -0.7071
# 14 vertex normals

vt 1.0000 0.1000 0.0000
vt 1.0000 0.9000 0.0000
vt 0.0000 0.9000 0.0000
vt 0.0000 0.1000 0.0000
vt 0.1000 0.1000 0.0000
vt 0.9000 0.1000 0.0000
vt 0.9000 0.9000 0.0000
vt 0.1000 0.9000 0.0000
vt 0.1000 0.0000 0.0000
vt 0.9000 0.0000 0.0000
vt 0.9000 1.0000 0.0000
vt 0.1000 1.0000 0.0000
vt 1.0000 -0.0518 0.0000
vt 0.0000 -0.0518 0.0000
vt -0.0000 1.0518 0.0000
vt 1.0000 1.0518 0.0000
vt -0.0318 0.1000 0.0000
vt -0.0318 0.9000 0.0000
vt 1.0318 0.9000 0.0000
vt 1.0318 0.1000 0.0000
vt -0.0518 0.0000 0.0000
vt -0.0518 1.0000 0.0000
# 22 texture coords

o Box001
g Box001
s 1
f 1/1/1 2/2/1 3/3/1 
f 3/3/1 4/4/1 1/1/1 
f 5/4/2 6/1/2 7/2/2 
f 7/2/2 8/3/2 5/4/2 
f 9/5/3 10/6/3 11/7/3 
f 11/7/3 12/8/3 9/5/3 
s 2
f 4/9/4 3/10/4 7/11/4 
f 7/11/4 6/12/4 4/9/4 
s 1
f 13/5/5 14/6/5 15/7/5 
f 15/7/5 16/8/5 13/5/5 
s 2
f 2/9/6 1/10/6 5/11/6 
f 5/11/6 8/12/6 2/9/6 
s 4
f 2/13/7 14/6/7 13/5/7 
f 13/5/7 3/14/7 2/13/7 
f 4/13/8 10/6/8 9/5/8 
f 9/5/8 1/14/8 4/13/8 
f 5/15/9 12/8/9 11/7/9 
f 11/7/9 6/16/9 5/15/9 
f 7/15/10 16/8/10 15/7/10 
f 15/7/10 8/16/10 7/15/10 
s 8
f 10/17/11 4/9/11 6/12/11 
f 6/12/11 11/18/11 10/17/11 
f 12/19/12 5/11/12 1/10/12 
f 1/10/12 9/20/12 12/19/12 
f 3/21/13 13/5/13 16/8/13 
f 16/8/13 7/22/13 3/21/13 
f 14/17/14 2/9/14 8/12/14 
f 8/12/14 15/18/14 14/17/14 
# 28 faces

