# 3ds Max Wavefront OBJ Exporter v0.97b - (c)2007 guruware
# File Created: 12.09.2019 17:10:41

#
# object Box001
#

v  -15.0000 0.0000 9.0000
v  -15.0000 0.0000 -9.0000
v  -10.7574 0.0000 -12.0000
v  10.7574 0.0000 -12.0000
v  15.0000 0.0000 -9.0000
v  15.0000 0.0000 9.0000
v  10.7574 0.0000 12.0000
v  -10.7574 0.0000 12.0000
v  -15.0000 60.0000 12.0000
v  15.0000 60.0000 12.0000
v  15.0000 60.0000 -12.0000
v  -15.0000 60.0000 -12.0000
v  12.0000 3.0000 15.0000
v  12.0000 27.0000 15.0000
v  -12.0000 27.0000 15.0000
v  -12.0000 3.0000 15.0000
v  45.0000 0.0000 12.0000
v  45.0000 0.0000 -12.0000
v  45.0000 30.0000 -12.0000
v  45.0000 30.0000 12.0000
v  -12.0000 3.0000 -15.0000
v  -12.0000 27.0000 -15.0000
v  12.0000 27.0000 -15.0000
v  12.0000 3.0000 -15.0000
v  -45.0000 0.0000 -12.0000
v  -45.0000 0.0000 12.0000
v  -45.0000 30.0000 12.0000
v  -45.0000 30.0000 -12.0000
v  19.2426 0.0000 -12.0000
v  19.2426 0.0000 12.0000
v  42.0000 27.0000 -15.0000
v  42.0000 3.0000 -15.0000
v  18.0000 3.0000 -15.0000
v  18.0000 27.0000 -15.0000
v  15.0000 30.0000 -9.0000
v  15.0000 30.0000 9.0000
v  19.2426 30.0000 12.0000
v  19.2426 30.0000 -12.0000
v  42.0000 3.0000 15.0000
v  42.0000 27.0000 15.0000
v  18.0000 27.0000 15.0000
v  18.0000 3.0000 15.0000
v  -19.2426 0.0000 12.0000
v  -19.2426 0.0000 -12.0000
v  -42.0000 27.0000 15.0000
v  -42.0000 3.0000 15.0000
v  -18.0000 3.0000 15.0000
v  -18.0000 27.0000 15.0000
v  -15.0000 30.0000 9.0000
v  -15.0000 30.0000 -9.0000
v  -19.2426 30.0000 -12.0000
v  -19.2426 30.0000 12.0000
v  -42.0000 3.0000 -15.0000
v  -42.0000 27.0000 -15.0000
v  -18.0000 27.0000 -15.0000
v  -18.0000 3.0000 -15.0000
v  12.0000 57.0000 15.0000
v  -12.0000 57.0000 15.0000
v  -12.0000 33.0000 15.0000
v  12.0000 33.0000 15.0000
v  15.0000 34.2426 -12.0000
v  15.0000 34.2426 12.0000
v  -12.0000 57.0000 -15.0000
v  12.0000 57.0000 -15.0000
v  12.0000 33.0000 -15.0000
v  -12.0000 33.0000 -15.0000
v  -15.0000 34.2426 12.0000
v  -15.0000 34.2426 -12.0000
v  -15.0000 0.0000 -12.0000
v  -14.1213 0.0000 -12.8787
v  14.1213 0.0000 -12.8787
v  15.0000 0.0000 -12.0000
v  15.0000 0.0000 12.0000
v  14.1213 0.0000 12.8787
v  -14.1213 0.0000 12.8787
v  -15.0000 0.0000 12.0000
v  15.0000 30.0000 12.0000
v  -15.0000 30.0000 12.0000
v  -15.0000 30.0000 -12.0000
v  15.0000 30.0000 -12.0000
v  15.8787 0.0000 -12.8787
v  15.8787 0.0000 12.8787
v  15.8787 30.0000 -12.8787
v  15.8787 30.0000 12.8787
v  -15.8787 0.0000 12.8787
v  -15.8787 0.0000 -12.8787
v  -15.8787 30.0000 12.8787
v  -15.8787 30.0000 -12.8787
v  -15.0000 30.8787 12.8787
v  15.0000 30.8787 12.8787
v  15.0000 30.8787 -12.8787
v  -15.0000 30.8787 -12.8787
# 92 vertices

vn 0.0000 -1.0000 -0.0000
vn 0.0000 1.0000 -0.0000
vn 0.0000 0.0000 1.0000
vn 1.0000 0.0000 -0.0000
vn 0.0000 0.0000 -1.0000
vn -1.0000 0.0000 -0.0000
vn 0.7071 0.0000 0.7071
vn 0.0000 0.7071 0.7071
vn -0.7071 0.0000 0.7071
vn -0.7071 0.0000 -0.7071
vn 0.0000 0.7071 -0.7071
vn 0.7071 0.0000 -0.7071
vn 0.0000 -0.7071 0.7071
vn 0.0000 -0.7071 -0.7071
vn -0.1913 -0.6533 0.7325
vn -0.0751 -0.6894 0.7205
vn -0.0720 -0.6902 0.7200
vn 0.1913 -0.6533 0.7325
vn 0.0720 -0.6902 0.7200
vn 0.0751 -0.6894 0.7205
vn 0.1913 0.6533 0.7325
vn 0.0751 0.6894 0.7205
vn 0.0720 0.6902 0.7200
vn -0.1913 0.6533 0.7325
vn -0.0720 0.6902 0.7200
vn -0.0751 0.6894 0.7205
vn -0.6533 0.1913 0.7325
vn -0.6894 0.0751 0.7205
vn -0.6902 0.0720 0.7200
vn 0.6533 0.1913 0.7325
vn 0.6902 0.0720 0.7200
vn 0.6894 0.0751 0.7205
vn -0.0000 -0.7071 0.7071
vn 0.1913 -0.6533 -0.7325
vn 0.0751 -0.6894 -0.7205
vn 0.0720 -0.6902 -0.7200
vn -0.1913 -0.6533 -0.7325
vn -0.0720 -0.6902 -0.7200
vn -0.0751 -0.6894 -0.7205
vn 0.1913 0.6533 -0.7325
vn 0.0720 0.6902 -0.7200
vn 0.0751 0.6894 -0.7205
vn -0.1913 0.6533 -0.7325
vn -0.0751 0.6894 -0.7205
vn -0.0720 0.6902 -0.7200
vn 0.6533 0.1913 -0.7325
vn 0.6894 0.0751 -0.7205
vn 0.6902 0.0720 -0.7200
vn -0.6533 0.1913 -0.7325
vn -0.6902 0.0720 -0.7200
vn -0.6894 0.0751 -0.7205
vn -0.0000 -0.7071 -0.7071
# 52 vertex normals

vt 1.0000 0.2000 0.0000
vt 1.0000 0.8000 0.0000
vt 0.8586 0.9000 0.0000
vt 0.1414 0.9000 0.0000
vt 0.0000 0.8000 0.0000
vt 0.0000 0.2000 0.0000
vt 0.1414 0.1000 0.0000
vt 0.8586 0.1000 0.0000
vt 0.0000 0.1000 0.0000
vt 1.0000 0.1000 0.0000
vt 1.0000 0.9000 0.0000
vt 0.0000 0.9000 0.0000
vt 0.9000 0.1111 0.0000
vt 0.9000 1.0000 0.0000
vt 0.1000 0.9000 0.0000
vt 0.1000 0.1000 0.0000
vt 0.1000 0.0000 0.0000
vt 0.9000 0.0000 0.0000
vt 0.1000 1.0000 0.0000
vt 0.2000 0.0000 0.0000
vt 0.8000 0.0000 0.0000
vt 0.8000 1.0000 0.0000
vt 0.2000 1.0000 0.0000
vt 1.0000 1.2000 0.0000
vt 1.0000 1.0000 0.0000
vt 0.9707 1.0000 0.0000
vt 0.0293 1.0000 0.0000
vt 0.0000 1.0000 0.0000
vt 0.0000 1.2000 0.0000
vt 0.0000 -0.2000 0.0000
vt 0.0000 0.0000 0.0000
vt 0.0293 0.0000 0.0000
vt 0.9707 0.0000 0.0000
vt 1.0000 0.0000 0.0000
vt 1.0000 -0.2000 0.0000
vt 1.2000 0.0000 0.0000
vt -0.2000 0.0000 0.0000
vt -0.2000 1.0000 0.0000
vt 1.2000 1.0000 0.0000
vt 0.8439 -0.0018 0.0000
vt 0.8187 -0.0917 0.0000
vt 0.9456 0.0641 0.0000
vt 0.2284 -0.0020 0.0000
vt 0.1813 1.0917 0.0000
# 44 texture coords

o Box001
g Box001
s 1
f 1/1/1 2/2/1 3/3/1 
f 3/3/1 4/4/1 5/5/1 
f 1/1/1 3/3/1 5/5/1 
f 5/5/1 6/6/1 7/7/1 
f 1/1/1 5/5/1 7/7/1 
f 1/1/1 7/7/1 8/8/1 
f 9/9/2 10/10/2 11/11/2 
f 11/11/2 12/12/2 9/9/2 
f 13/13/3 14/14/3 15/15/3 
f 15/15/3 16/16/3 13/13/3 
s 2
f 17/17/4 18/18/4 19/14/4 
f 19/14/4 20/19/4 17/17/4 
s 1
f 21/13/5 22/14/5 23/15/5 
f 23/15/5 24/16/5 21/13/5 
s 2
f 25/17/6 26/18/6 27/14/6 
f 27/14/6 28/19/6 25/17/6 
s 1
f 6/20/1 5/21/1 29/18/1 
f 6/20/1 29/18/1 18/18/1 
f 6/20/1 18/18/1 17/17/1 
f 6/20/1 17/17/1 30/17/1 
f 31/11/5 32/10/5 33/10/5 
f 33/10/5 34/11/5 31/11/5 
f 35/22/2 36/23/2 37/19/2 
f 35/22/2 37/19/2 20/19/2 
f 35/22/2 20/19/2 19/14/2 
f 35/22/2 19/14/2 38/14/2 
f 39/9/3 40/12/3 41/12/3 
f 41/12/3 42/9/3 39/9/3 
f 2/20/1 1/21/1 43/18/1 
f 2/20/1 43/18/1 26/18/1 
f 2/20/1 26/18/1 25/17/1 
f 2/20/1 25/17/1 44/17/1 
f 45/11/3 46/10/3 47/10/3 
f 47/10/3 48/11/3 45/11/3 
f 49/22/2 50/23/2 51/19/2 
f 49/22/2 51/19/2 28/19/2 
f 49/22/2 28/19/2 27/14/2 
f 49/22/2 27/14/2 52/14/2 
f 53/9/5 54/12/5 55/12/5 
f 55/12/5 56/9/5 53/9/5 
f 57/18/3 58/17/3 59/17/3 
f 59/17/3 60/18/3 57/18/3 
s 2
f 36/1/4 35/2/4 61/11/4 
f 36/1/4 61/11/4 11/11/4 
f 36/1/4 11/11/4 10/10/4 
f 36/1/4 10/10/4 62/10/4 
s 1
f 63/19/5 64/14/5 65/14/5 
f 65/14/5 66/19/5 63/19/5 
s 2
f 50/5/6 49/6/6 67/9/6 
f 50/5/6 67/9/6 9/9/6 
f 50/5/6 9/9/6 12/12/6 
f 50/5/6 12/12/6 68/12/6 
f 69/24/4 69/25/4 70/26/4 
f 71/27/4 72/28/4 72/29/4 
f 73/30/4 73/31/4 74/32/4 
f 75/33/4 76/34/4 76/35/4 
s 4
f 73/34/7 77/25/7 14/14/7 
f 74/33/7 73/34/7 14/14/7 
f 13/13/7 74/33/7 14/14/7 
s 2
f 15/15/8 14/14/8 77/25/8 
f 77/25/8 78/28/8 15/15/8 
s 4
f 15/15/9 78/28/9 76/31/9 
f 76/31/9 75/32/9 16/16/9 
f 15/15/9 76/31/9 16/16/9 
f 69/34/10 79/25/10 22/14/10 
f 70/33/10 69/34/10 22/14/10 
f 21/13/10 70/33/10 22/14/10 
s 2
f 23/15/11 22/14/11 79/25/11 
f 79/25/11 80/28/11 23/15/11 
s 4
f 23/15/12 80/28/12 72/31/12 
f 72/31/12 71/32/12 24/16/12 
f 23/15/12 72/31/12 24/16/12 
s 2
f 72/36/4 72/34/4 81/34/4 
f 82/31/4 73/31/4 73/37/4 
s 8
f 81/34/10 72/34/10 80/25/10 
f 80/25/10 83/25/10 34/11/10 
f 81/34/10 80/25/10 34/11/10 
f 33/10/10 81/34/10 34/11/10 
f 77/38/4 77/28/4 84/28/4 
s 16
f 83/25/4 80/25/4 80/39/4 
f 84/28/9 77/28/9 73/31/9 
f 73/31/9 82/31/9 42/9/9 
f 84/28/9 73/31/9 42/9/9 
f 41/12/9 84/28/9 42/9/9 
s 2
f 76/36/4 76/34/4 85/34/4 
f 86/31/4 69/31/4 69/37/4 
s 8
f 85/34/7 76/34/7 78/25/7 
f 78/25/7 87/25/7 48/11/7 
f 85/34/7 78/25/7 48/11/7 
f 47/10/7 85/34/7 48/11/7 
f 79/38/4 79/28/4 88/28/4 
s 16
f 87/25/4 78/25/4 78/39/4 
f 88/28/12 79/28/12 69/31/12 
f 69/31/12 86/31/12 56/9/12 
f 88/28/12 69/31/12 56/9/12 
f 55/12/12 88/28/12 56/9/12 
s 32
f 89/31/13 78/31/13 77/34/13 
f 77/34/13 90/34/13 60/18/13 
f 89/31/13 77/34/13 60/18/13 
f 59/17/13 89/31/13 60/18/13 
s 16
f 80/24/4 80/25/4 91/25/4 
s 8
f 90/34/4 77/34/4 77/35/4 
s 32
f 91/25/14 80/25/14 79/28/14 
f 79/28/14 92/28/14 66/19/14 
f 91/25/14 79/28/14 66/19/14 
f 65/14/14 91/25/14 66/19/14 
s 16
f 78/30/4 78/31/4 89/31/4 
s 8
f 92/28/4 79/28/4 79/29/4 
f 74/33/15 13/13/16 7/40/17 
f 75/33/18 8/8/19 16/41/20 
s 4
f 82/31/18 30/17/19 42/9/20 
f 84/28/21 41/12/22 37/19/23 
f 85/34/15 47/10/16 43/18/17 
f 87/25/24 52/14/25 48/11/26 
f 89/31/27 59/17/28 67/9/29 
f 90/34/30 62/10/31 60/18/32 
s 8
f 7/42/17 13/13/16 16/16/20 
f 16/16/20 8/43/19 7/42/17 
f 20/19/7 40/12/7 39/9/7 
f 39/9/7 17/17/7 20/19/7 
s 4
f 42/9/20 30/17/19 17/17/33 
f 17/17/33 39/9/33 42/9/20 
f 37/19/23 41/12/22 40/12/8 
f 40/12/8 20/19/8 37/19/23 
s 8
f 26/18/9 46/10/9 45/11/9 
f 45/11/9 27/14/9 26/18/9 
s 4
f 43/18/17 47/10/16 46/10/13 
f 46/10/13 26/18/13 43/18/17 
f 48/11/26 52/14/25 27/14/8 
f 27/14/8 45/11/8 48/11/26 
s 8
f 9/9/8 58/17/8 57/18/8 
f 57/18/8 10/10/8 9/9/8 
s 4
f 67/9/29 59/17/28 58/17/9 
f 58/17/9 9/9/9 67/9/29 
f 60/18/32 62/10/31 10/10/7 
f 10/10/7 57/18/7 60/18/32 
s 1
f 6/6/1 73/30/1 74/32/1 
f 74/32/1 7/7/1 6/6/1 
f 8/8/1 75/33/1 76/35/1 
f 76/35/1 1/1/1 8/8/1 
f 30/17/1 82/31/1 73/37/1 
f 73/37/1 6/20/1 30/17/1 
f 36/23/2 77/38/2 84/28/2 
f 84/28/2 37/19/2 36/23/2 
f 1/21/1 76/36/1 85/34/1 
f 85/34/1 43/18/1 1/21/1 
f 52/14/2 87/25/2 78/39/2 
f 78/39/2 49/22/2 52/14/2 
s 2
f 62/10/4 90/34/4 77/35/4 
f 77/35/4 36/1/4 62/10/4 
f 49/6/6 78/30/6 89/31/6 
f 89/31/6 67/9/6 49/6/6 
s 8
f 70/33/34 21/13/35 3/40/36 
f 71/27/37 4/4/38 24/44/39 
s 4
f 81/34/34 33/10/35 29/18/36 
f 83/25/40 38/14/41 34/11/42 
f 86/31/37 44/17/38 56/9/39 
f 88/28/43 55/12/44 51/19/45 
f 91/25/46 65/14/47 61/11/48 
f 92/28/49 68/12/50 66/19/51 
s 8
f 3/42/36 21/13/35 24/16/39 
f 24/16/39 4/43/38 3/42/36 
f 18/18/12 32/10/12 31/11/12 
f 31/11/12 19/14/12 18/18/12 
s 4
f 29/18/36 33/10/35 32/10/52 
f 32/10/52 18/18/14 29/18/36 
f 34/11/42 38/14/41 19/14/11 
f 19/14/11 31/11/11 34/11/42 
s 8
f 28/19/10 54/12/10 53/9/10 
f 53/9/10 25/17/10 28/19/10 
s 4
f 56/9/39 44/17/38 25/17/14 
f 25/17/14 53/9/14 56/9/39 
f 51/19/45 55/12/44 54/12/11 
f 54/12/11 28/19/11 51/19/45 
s 8
f 11/11/11 64/14/11 63/19/11 
f 63/19/11 12/12/11 11/11/11 
s 4
f 61/11/48 65/14/47 64/14/12 
f 64/14/12 11/11/12 61/11/48 
f 66/19/51 68/12/50 12/12/10 
f 12/12/10 63/19/10 66/19/51 
s 1
f 2/2/1 69/24/1 70/26/1 
f 70/26/1 3/3/1 2/2/1 
f 4/4/1 71/27/1 72/29/1 
f 72/29/1 5/5/1 4/4/1 
f 5/21/1 72/36/1 81/34/1 
f 81/34/1 29/18/1 5/21/1 
f 38/14/2 83/25/2 80/39/2 
f 80/39/2 35/22/2 38/14/2 
f 44/17/1 86/31/1 69/37/1 
f 69/37/1 2/20/1 44/17/1 
f 50/23/2 79/38/2 88/28/2 
f 88/28/2 51/19/2 50/23/2 
s 2
f 35/2/4 80/24/4 91/25/4 
f 91/25/4 61/11/4 35/2/4 
f 68/12/6 92/28/6 79/29/6 
f 79/29/6 50/5/6 68/12/6 
# 196 faces

