# 3ds Max Wavefront OBJ Exporter v0.97b - (c)2007 guruware
# File Created: 14.09.2019 11:04:03

#
# object Box002
#

v  -149.9998 0.0001 -300.0002
v  -149.9998 0.0001 299.9998
v  -165.0000 0.0001 314.9998
v  -165.0000 0.0001 -315.0002
v  150.0002 0.0001 -300.0002
v  165.0000 0.0001 -315.0002
v  150.0002 0.0001 299.9998
v  165.0000 0.0001 314.9998
v  165.0000 30.0001 314.9998
v  -165.0000 30.0001 314.9998
v  -165.0000 30.0001 -315.0002
v  165.0000 30.0001 -315.0002
v  150.0002 30.0001 299.9998
v  -149.9998 30.0001 299.9998
v  150.0002 30.0001 -300.0002
v  -149.9998 30.0001 -300.0002
# 16 vertices

vn 0.0000 -1.0000 -0.0000
vn 0.0000 0.0000 1.0000
vn -1.0000 0.0000 -0.0000
vn 0.0000 0.0000 -1.0000
vn 1.0000 0.0000 -0.0000
vn 0.0000 1.0000 -0.0000
# 6 vertex normals

vt 0.9545 0.9762 0.0000
vt 0.9545 0.0238 0.0000
vt 1.0000 0.0000 0.0000
vt 1.0000 1.0000 0.0000
vt 0.0455 0.9762 0.0000
vt 0.0000 1.0000 0.0000
vt 0.0455 0.0238 0.0000
vt 0.0000 0.0000 0.0000
vt 0.0000 0.0657 0.0000
vt 0.0000 0.8771 0.0000
vt 1.0000 0.8771 0.0000
vt 1.0000 0.0657 0.0000
# 12 texture coords

o Box002
g Box002
s 2
f 1/1/1 2/2/1 3/3/1 
f 1/1/1 3/3/1 4/4/1 
f 5/5/1 1/1/1 4/4/1 
f 5/5/1 4/4/1 6/6/1 
f 7/7/1 5/5/1 6/6/1 
f 7/7/1 6/6/1 8/8/1 
f 2/2/1 7/7/1 8/8/1 
f 3/3/1 2/2/1 8/8/1 
s 8
f 8/3/2 9/4/2 10/6/2 
f 10/6/2 3/8/2 8/3/2 
s 64
f 3/3/3 10/4/3 11/6/3 
f 11/6/3 4/8/3 3/3/3 
s 32
f 4/3/4 11/4/4 12/6/4 
f 12/6/4 6/8/4 4/3/4 
s 16
f 6/3/5 12/4/5 9/6/5 
f 9/6/5 8/8/5 6/3/5 
s 4
f 13/2/6 14/7/6 10/8/6 
f 13/2/6 10/8/6 9/3/6 
f 15/1/6 13/2/6 9/3/6 
f 15/1/6 9/3/6 12/4/6 
f 16/5/6 15/1/6 12/4/6 
f 16/5/6 12/4/6 11/6/6 
f 14/7/6 16/5/6 11/6/6 
f 10/8/6 14/7/6 11/6/6 
s 256
f 2/9/4 14/10/4 13/11/4 
f 13/11/4 7/12/4 2/9/4 
s 512
f 7/9/3 13/10/3 15/11/3 
f 15/11/3 5/12/3 7/9/3 
s 2048
f 1/9/5 16/10/5 14/11/5 
f 14/11/5 2/12/5 1/9/5 
s 1024
f 5/9/2 15/10/2 16/11/2 
f 16/11/2 1/12/2 5/9/2 
# 32 faces

